<svg style="background:#180A47" xmlns="http://www.w3.org/2000/svg" width="1334.594" height="705.658" viewBox="0 0 1334.594 705.658"><defs><style>.a,.j,.k,.l,.s{fill:#c64773;}.a{opacity:0.6;}.b,.d,.f,.p,.r{fill:#f8d547;}.b{opacity:0.728;}.c,.h,.i{fill:#5e81f4;}.c,.d{opacity:0.842;}.e,.g,.m,.o,.q,.t{fill:#36b8b7;}.e{opacity:0.885;}.f{opacity:0.909;}.g{opacity:0.884;}.h{opacity:0.608;}.i,.j{opacity:0.611;}.k{opacity:0.816;}.l{opacity:0.852;}.m{opacity:0.818;}.n{fill:#5843be;}.o{opacity:0.671;}.p{opacity:0.945;}.q{opacity:0.769;}.r{opacity:0.835;}.s{opacity:0.741;}</style></defs><g transform="translate(-1051.103 910.002)"><path class="a" d="M-366.963-929.7a7.971,7.971,0,0,1,0-11.255,7.927,7.927,0,0,1,11.229,0,7.972,7.972,0,0,1,0,11.255,7.906,7.906,0,0,1-5.615,2.331A7.906,7.906,0,0,1-366.963-929.7Z" transform="matrix(-0.914, 0.407, -0.407, -0.914, 1384.849, -1265.915)"/><path class="b" d="M-367.358-932.007a6.619,6.619,0,0,1,0-9.346,6.582,6.582,0,0,1,9.325,0,6.619,6.619,0,0,1,0,9.346,6.565,6.565,0,0,1-4.662,1.936A6.565,6.565,0,0,1-367.358-932.007Z" transform="translate(1560.074 -1084.967) rotate(-129)"/><path class="c" d="M-367.417-932.35a6.418,6.418,0,0,1,0-9.062,6.382,6.382,0,0,1,9.041,0,6.418,6.418,0,0,1,0,9.062,6.366,6.366,0,0,1-4.521,1.877A6.366,6.366,0,0,1-367.417-932.35Z" transform="translate(2141.944 -484.183) rotate(-68)"/><path class="d" d="M-367.417-932.35a6.418,6.418,0,0,1,0-9.062,6.382,6.382,0,0,1,9.041,0,6.418,6.418,0,0,1,0,9.062,6.366,6.366,0,0,1-4.521,1.877A6.366,6.366,0,0,1-367.417-932.35Z" transform="translate(3348.944 -887.183) rotate(-68)"/><path class="e" d="M-367.335-931.872a6.7,6.7,0,0,1,0-9.458,6.661,6.661,0,0,1,9.437,0,6.7,6.7,0,0,1,0,9.458,6.644,6.644,0,0,1-4.718,1.959A6.644,6.644,0,0,1-367.335-931.872Z" transform="translate(2143.087 -1178.303) rotate(-93)"/><path class="f" d="M-363.113-896.316-352.55-906.9l5.934,5.948a17.41,17.41,0,0,1-12.363,5.133A17.488,17.488,0,0,1-363.113-896.316Z" transform="matrix(0.719, -0.695, 0.695, 0.719, 2885.127, -446.873)"/><path class="g" d="M-363.113-895.775l11.1-11.129,6.238,6.252a18.3,18.3,0,0,1-13,5.4A18.383,18.383,0,0,1-363.113-895.775Z" transform="matrix(-0.951, 0.309, -0.309, -0.951, 830.384, -1641.036)"/><path class="h" d="M-397.011-917l7.732-7.75a10.176,10.176,0,0,0,2.982,7.01,10.13,10.13,0,0,0,6.994,2.989l-7.732,7.75A19.689,19.689,0,0,1-397.011-917Z" transform="translate(2925.739 309.814) rotate(-20)"/><path class="i" d="M-397.011-916.949l7.783-7.8a10.244,10.244,0,0,0,3,7.057,10.2,10.2,0,0,0,7.041,3.009l-7.783,7.8A19.82,19.82,0,0,1-397.011-916.949Z" transform="matrix(-0.07, -0.998, 0.998, -0.07, 3262.677, -1064.672)"/><path class="j" d="M-397.011-916.949l7.783-7.8a10.244,10.244,0,0,0,3,7.057,10.2,10.2,0,0,0,7.041,3.009l-7.783,7.8A19.82,19.82,0,0,1-397.011-916.949Z" transform="matrix(-0.946, 0.326, -0.326, -0.946, 1079.048, -1619.204)"/><path class="k" d="M-397.011-917.15l7.583-7.6a9.98,9.98,0,0,0,2.925,6.875,9.935,9.935,0,0,0,6.86,2.932l-7.583,7.6A19.31,19.31,0,0,1-397.011-917.15Z" transform="matrix(-0.966, 0.259, -0.259, -0.966, 1213.844, -1017.684)"/><path class="l" d="M-397.011-916.244l8.486-8.506a11.169,11.169,0,0,0,3.273,7.694,11.118,11.118,0,0,0,7.677,3.281l-8.486,8.506A21.61,21.61,0,0,1-397.011-916.244Z" transform="translate(1361.954 -1359.55) rotate(-150)"/><path class="m" d="M-350.842-962.417h0l-12.27-12.3a20.317,20.317,0,0,1,4.8-.572,20.222,20.222,0,0,1,14.361,5.962l-6.893,6.909Z" transform="matrix(0.105, -0.995, 0.995, 0.105, 3184.681, -504.307)"/><path class="n" d="M-350.842-962.417h0l-12.27-12.3a20.317,20.317,0,0,1,4.8-.572,20.222,20.222,0,0,1,14.361,5.962l-6.893,6.909Z" transform="matrix(0.934, -0.358, 0.358, 0.934, 2011.437, 525.823)"/><path class="o" d="M-351.069-962.654h0l-12.044-12.072a19.945,19.945,0,0,1,4.714-.562,19.85,19.85,0,0,1,14.1,5.852l-6.766,6.782Z" transform="translate(3100.718 -1241.592) rotate(-99)"/><path class="p" d="M-348.983-960.466h0l-14.13-14.163a23.4,23.4,0,0,1,5.531-.659,23.287,23.287,0,0,1,16.537,6.866l-7.938,7.957Z" transform="translate(2134.818 -926.213) rotate(-73)"/><path class="q" d="M-352.906-964.582h0l-10.206-10.23a16.9,16.9,0,0,1,4-.476,16.821,16.821,0,0,1,11.946,4.959l-5.734,5.747Z" transform="translate(1504.633 -1301.791) rotate(-166)"/><path class="r" d="M-349.867-961.393h0l-13.246-13.277a21.935,21.935,0,0,1,5.185-.618,21.831,21.831,0,0,1,15.5,6.436l-7.441,7.459Z" transform="translate(1219.292 -1767.669) rotate(-172)"/><path class="s" d="M-352.524-964.181h0l-10.589-10.614a17.536,17.536,0,0,1,4.145-.494,17.452,17.452,0,0,1,12.393,5.145l-5.949,5.963Z" transform="translate(1853.097 275.219) rotate(-11)"/><path class="t" d="M-363.113-620.25l286-286.652L83.548-745.877C-2.112-660.018-120.458-606.9-251.169-606.9A473.393,473.393,0,0,1-363.113-620.25Z" transform="translate(2087.395 328.729)"/></g></svg>